<?xml version="1.0" encoding="UTF-8"?>
<svg id="_レイヤー_2" data-name="レイヤー 2" xmlns="http://www.w3.org/2000/svg" xmlns:xlink="http://www.w3.org/1999/xlink" viewBox="0 0 1282.4 400">
  <defs>
    <style>
      .cls-1 {
        fill: #3f3f3f;
      }

      .cls-1, .cls-2, .cls-3, .cls-4, .cls-5, .cls-6 {
        stroke-width: 0px;
      }

      .cls-2 {
        fill: url(#_名称未設定グラデーション_50-2);
      }

      .cls-3 {
        fill: url(#_名称未設定グラデーション_50);
      }

      .cls-4 {
        fill: url(#_名称未設定グラデーション_56);
      }

      .cls-5 {
        fill: url(#_名称未設定グラデーション_56-2);
      }

      .cls-6 {
        fill: url(#_名称未設定グラデーション_69);
      }
    </style>
    <linearGradient id="_名称未設定グラデーション_50" data-name="名称未設定グラデーション 50" x1="1043.9" y1="15.97" x2="1266.42" y2="238.5" gradientUnits="userSpaceOnUse">
      <stop offset="0" stop-color="#ffd187"/>
      <stop offset="1" stop-color="#ffac29"/>
    </linearGradient>
    <linearGradient id="_名称未設定グラデーション_69" data-name="名称未設定グラデーション 69" x1="1128.44" y1="246.05" x2="1026.34" y2="143.94" gradientUnits="userSpaceOnUse">
      <stop offset="0" stop-color="#ff7480"/>
      <stop offset="1" stop-color="#ffc05a"/>
    </linearGradient>
    <linearGradient id="_名称未設定グラデーション_50-2" data-name="名称未設定グラデーション 50" x1="986.76" y1="249.88" x2="1120.9" y2="384.03" xlink:href="#_名称未設定グラデーション_50"/>
    <linearGradient id="_名称未設定グラデーション_56" data-name="名称未設定グラデーション 56" x1="898.37" y1="238.5" x2="1032.52" y2="104.36" gradientUnits="userSpaceOnUse">
      <stop offset="0" stop-color="#ff7480"/>
      <stop offset="1" stop-color="#ff9fa7"/>
    </linearGradient>
    <linearGradient id="_名称未設定グラデーション_56-2" data-name="名称未設定グラデーション 56" x1="1132.28" y1="295.64" x2="1178.04" y2="249.88" xlink:href="#_名称未設定グラデーション_56"/>
  </defs>
  <g id="_レイヤー_1-2" data-name="レイヤー 1">
    <g>
      <g>
        <path class="cls-1" d="M39.13,205.9H13.33v42.32H0v-96.41c0-1,.81-1.82,1.82-1.82h32.57c25.42,0,42.64,7.19,42.64,27.42,0,17.57-10.92,25.69-28.6,27.82l30.1,42.99h-13.36l-26.04-42.32ZM35.58,203.24c21.05,0,29.99-5.46,29.99-25.82,0-19.03-9.14-24.76-31.18-24.76H13.33v50.58h22.25Z"/>
        <path class="cls-1" d="M123.32,210.07c0-29.28,17.74-39.93,39.2-39.93s39.19,10.65,39.19,39.93-17.74,39.93-39.19,39.93-39.2-10.65-39.2-39.93ZM189.52,209.96c0-28.54-8.26-37.59-27.01-37.59s-27.01,9.26-27.01,37.59,8.26,37.8,27.01,37.8,27.01-9.37,27.01-37.8Z"/>
        <path class="cls-1" d="M242.74,210.07c0-29.28,17.74-39.93,39.2-39.93s39.19,10.65,39.19,39.93-17.74,39.93-39.19,39.93-39.2-10.65-39.2-39.93ZM308.95,209.96c0-28.54-8.26-37.59-27.01-37.59s-27.01,9.26-27.01,37.59,8.26,37.8,27.01,37.8,27.01-9.37,27.01-37.8Z"/>
        <path class="cls-1" d="M373.26,150h10.99v95.56h48.86v2.66h-61.67v-96.41c0-1,.81-1.82,1.82-1.82Z"/>
        <path class="cls-1" d="M472.29,210.07c0-29.28,17.74-39.93,39.2-39.93s39.19,10.65,39.19,39.93-17.74,39.93-39.19,39.93-39.2-10.65-39.2-39.93ZM538.5,209.96c0-28.54-8.26-37.59-27.01-37.59s-27.01,9.26-27.01,37.59,8.26,37.8,27.01,37.8,27.01-9.37,27.01-37.8Z"/>
        <path class="cls-1" d="M665.28,240.15v-70.01h6.6v79.86h-3.74l-54.9-69.47v69.47h-11.31c-1,0-1.82-.81-1.82-1.82v-78.04h9.57l55.59,70.01Z"/>
        <path class="cls-1" d="M729.68,171.96c0-1,.81-1.82,1.82-1.82h53.03v2.16h-42.96v35.49h39.24v2.16h-39.24v37.87h44.25v2.16h-56.14v-78.04Z"/>
      </g>
      <g>
        <path class="cls-3" d="M1173.45,200c0,30.04,24.44,54.48,54.48,54.48s54.48-24.44,54.48-54.48-24.44-54.48-54.48-54.48c-50.2,0-91.05-40.84-91.05-91.05,0-30.04-24.44-54.48-54.48-54.48s-54.48,24.44-54.48,54.48,24.44,54.48,54.48,54.48c50.2,0,91.05,40.84,91.05,91.05Z"/>
        <path class="cls-6" d="M1030.68,148.28c-13.82,13.82-21.42,32.18-21.42,51.72s7.61,37.91,21.42,51.72c13.82,13.82,32.18,21.42,51.72,21.42s37.91-7.61,51.72-21.42c28.52-28.52,28.52-74.93,0-103.45-13.82-13.82-32.18-21.42-51.72-21.42s-37.91,7.61-51.72,21.42Z"/>
        <path class="cls-2" d="M1082.4,291.05c-36.93,0-68.76-22.11-83.04-53.77-6.19,10.35-14.87,19.03-25.21,25.21,31.66,14.27,53.77,46.11,53.77,83.04,0,30.04,24.44,54.48,54.48,54.48s54.48-24.44,54.48-54.48-24.44-54.48-54.48-54.48Z"/>
        <path class="cls-4" d="M1019.91,91.75c-14.27,31.66-46.11,53.77-83.04,53.77-30.04,0-54.48,24.44-54.48,54.48s24.44,54.48,54.48,54.48,54.48-24.44,54.48-54.48c0-36.93,22.11-68.76,53.77-83.04-10.35-6.19-19.03-14.86-25.21-25.21Z"/>
        <path class="cls-5" d="M1165.44,237.28c-9.14,20.27-25.49,36.61-45.76,45.75,10.35,6.19,19.03,14.87,25.21,25.21,9.14-20.27,25.49-36.62,45.75-45.76-10.34-6.18-19.02-14.86-25.2-25.2Z"/>
      </g>
    </g>
  </g>
</svg>